# xmcd CD database file
#
# Track frame offsets:
#	150
#	12367
#	25100
#	43646
#	56291
#	65415
#	78418
#	94021
#	110586
#	125153
#	138865
#	153645
#	164692
#
# Disc length: 2327 seconds
#
# Revision: 0
# Processed by: cddbd v1.5.1PL0 Copyright (c) Steve Scherf et al.
# Submitted via: CDex 1.50
#
DISCID=aa09150d
DTITLE=geoff williams - just be yourself
DYEAR=2004
DGENRE=Country
TTITLE0=geoff williams - just be yourself 
TTITLE1=geoff williams - god's own country
TTITLE2=geoff williams - lovelight
TTITLE3=geoff williams - the daylight savings song 
TTITLE4=geoff williams - canbera a.c.t.
TTITLE5=geoff williams - green green grass of home 
TTITLE6=geoff williams - he'll have to go 
TTITLE7=geoff williams - crying time 
TTITLE8=geoff williams - my heroes 
TTITLE9=geoff williams - she treats me like king 
TTITLE10=geoff williams - for the good times 
TTITLE11=geoff williams - your my best frend
TTITLE12=geoff williams - boot scootin' bogeys 
EXTD=YEAR: 2004
EXTT0=
EXTT1=
EXTT2=
EXTT3=
EXTT4=
EXTT5=
EXTT6=
EXTT7=
EXTT8=
EXTT9=
EXTT10=
EXTT11=
EXTT12=
PLAYORDER=
